<svg width="170" height="23" viewBox="0 0 170 23" fill="none" xmlns="http://www.w3.org/2000/svg">
<path d="M7.008 10.68H11.52L10.464 4.536L7.008 10.68ZM9.72 0.48H12.744L15.96 17.28H12.648L11.976 13.368H5.496L3.288 17.28H0L9.72 0.48Z" fill="white"/>
<path d="M19.7708 5.184H22.7227L22.3628 7.056C22.8108 6.4 23.3948 5.896 24.1147 5.544C24.8348 5.176 25.5948 4.992 26.3948 4.992C27.5948 4.992 28.5228 5.328 29.1788 6C29.8348 6.656 30.1628 7.568 30.1628 8.736C30.1628 9.232 30.1228 9.672 30.0428 10.056L28.6268 17.28H25.6988L27.0428 10.416C27.0908 10.176 27.1147 9.936 27.1147 9.696C27.1147 9.04 26.9307 8.528 26.5627 8.16C26.2108 7.776 25.7068 7.584 25.0508 7.584C24.2188 7.584 23.4827 7.888 22.8428 8.496C22.2188 9.104 21.8107 9.896 21.6187 10.872L20.3708 17.28H17.4188L19.7708 5.184Z" fill="white"/>
<path d="M28.2212 19.824H29.3252C29.7892 19.824 30.1892 19.656 30.5252 19.32C30.8452 18.984 31.0612 18.528 31.1732 17.952L33.6692 5.184H36.5972L34.0772 18.24C33.8212 19.472 33.2692 20.432 32.4212 21.12C31.5732 21.824 30.5172 22.176 29.2532 22.176H28.2212V19.824ZM37.7492 0L37.1012 3.288H33.9332L34.5812 0H37.7492Z" fill="white"/>
<path d="M40.7582 17.472C40.0862 17.472 39.4782 17.32 38.9342 17.016C38.3902 16.712 37.9582 16.304 37.6382 15.792C37.3182 15.28 37.1582 14.72 37.1582 14.112C37.1582 13.888 37.1822 13.672 37.2302 13.464C37.4542 12.328 38.0062 11.472 38.8862 10.896C39.7662 10.32 40.8462 10.032 42.1262 10.032H44.7902C45.4462 10.032 45.7742 9.664 45.7742 8.928C45.7742 8.432 45.5662 8.024 45.1502 7.704C44.7502 7.384 44.2222 7.224 43.5662 7.224C42.8302 7.224 42.2222 7.424 41.7422 7.824C41.2782 8.208 40.9982 8.672 40.9022 9.216H37.9502C38.0782 8.448 38.4222 7.744 38.9822 7.104C39.5422 6.448 40.2462 5.936 41.0942 5.568C41.9422 5.184 42.8542 4.992 43.8302 4.992C44.7742 4.992 45.6142 5.16 46.3502 5.496C47.0862 5.816 47.6542 6.272 48.0542 6.864C48.4702 7.44 48.6782 8.104 48.6782 8.856C48.6782 9.112 48.6542 9.384 48.6062 9.672L47.1422 17.28H44.1902L44.5262 15.48C44.1742 16.088 43.6702 16.576 43.0142 16.944C42.3582 17.296 41.6062 17.472 40.7582 17.472ZM40.1342 13.488C40.1182 13.568 40.1102 13.672 40.1102 13.8C40.1102 14.216 40.2622 14.568 40.5662 14.856C40.8862 15.128 41.3022 15.264 41.8142 15.264C42.6462 15.264 43.3662 14.992 43.9742 14.448C44.5822 13.904 44.9742 13.184 45.1502 12.288L45.1982 11.976H42.4142C41.7902 11.976 41.2782 12.104 40.8782 12.36C40.4942 12.6 40.2462 12.976 40.1342 13.488Z" fill="white"/>
<path d="M53.2196 0H56.1716L52.7876 17.28H49.8596L53.2196 0Z" fill="white"/>
<path d="M58.0459 5.184H60.9979L58.6459 17.28H55.6939L58.0459 5.184ZM62.1259 0L61.4779 3.288H58.3099L58.9579 0H62.1259Z" fill="white"/>
<path d="M74.4375 17.472C73.2055 17.472 72.0775 17.192 71.0535 16.632C70.0295 16.056 69.2135 15.232 68.6055 14.16C67.9975 13.088 67.6935 11.832 67.6935 10.392C67.6935 9.8 67.7575 9.136 67.8855 8.4C68.2375 6.592 68.9015 5.08 69.8775 3.864C70.8535 2.648 72.0135 1.752 73.3575 1.176C74.7175 0.584001 76.1415 0.288001 77.6295 0.288001C78.9255 0.288001 80.0695 0.512001 81.0615 0.960001C82.0695 1.392 82.8535 2.008 83.4135 2.808C83.9735 3.592 84.2535 4.512 84.2535 5.568C84.2535 5.84 84.2455 6.048 84.2295 6.192H80.9655C80.9815 5.232 80.6295 4.464 79.9095 3.888C79.1895 3.312 78.2455 3.024 77.0775 3.024C75.5255 3.024 74.2055 3.472 73.1175 4.368C72.0455 5.264 71.3335 6.608 70.9815 8.4C70.8535 9.04 70.7895 9.6 70.7895 10.08C70.7895 11.52 71.1815 12.68 71.9655 13.56C72.7655 14.424 73.8055 14.856 75.0855 14.856C75.9015 14.856 76.6775 14.704 77.4135 14.4C78.1655 14.08 78.7815 13.664 79.2615 13.152C79.7575 12.64 80.0535 12.104 80.1495 11.544C80.1655 11.496 80.1735 11.424 80.1735 11.328C80.1735 10.896 79.9335 10.68 79.4535 10.68H76.3095V8.256H80.9895C81.6455 8.256 82.1895 8.464 82.6215 8.88C83.0695 9.296 83.2935 9.832 83.2935 10.488C83.2935 10.584 83.2775 10.76 83.2455 11.016L82.0215 17.28H79.1895L79.7415 14.616C79.2295 15.496 78.5015 16.192 77.5575 16.704C76.6295 17.216 75.5895 17.472 74.4375 17.472Z" fill="white"/>
<path d="M88.0712 0H91.0232L89.6552 7.056C90.0872 6.4 90.6632 5.896 91.3832 5.544C92.1192 5.176 92.8872 4.992 93.6872 4.992C94.8872 4.992 95.8152 5.32 96.4712 5.976C97.1272 6.632 97.4552 7.544 97.4552 8.712C97.4552 9.128 97.4072 9.576 97.3112 10.056L95.9192 17.28H92.9912L94.3112 10.416C94.3592 10.144 94.3832 9.896 94.3832 9.672C94.3832 9.032 94.1992 8.528 93.8312 8.16C93.4632 7.776 92.9592 7.584 92.3192 7.584C91.5032 7.584 90.7752 7.88 90.1352 8.472C89.5112 9.048 89.1112 9.784 88.9352 10.68L87.6392 17.28H84.7112L88.0712 0Z" fill="white"/>
<path d="M104.823 17.472C103.751 17.472 102.783 17.24 101.919 16.776C101.071 16.312 100.399 15.68 99.9028 14.88C99.4228 14.08 99.1748 13.184 99.1588 12.192C99.1268 10.848 99.4228 9.632 100.047 8.544C100.671 7.44 101.527 6.576 102.615 5.952C103.719 5.312 104.943 4.992 106.287 4.992C107.359 4.992 108.319 5.224 109.167 5.688C110.031 6.152 110.703 6.784 111.183 7.584C111.679 8.384 111.935 9.28 111.951 10.272C111.983 11.616 111.687 12.84 111.063 13.944C110.439 15.032 109.575 15.896 108.471 16.536C107.383 17.16 106.167 17.472 104.823 17.472ZM102.159 11.928C102.159 12.824 102.423 13.552 102.951 14.112C103.495 14.656 104.199 14.928 105.063 14.928C105.815 14.928 106.487 14.728 107.079 14.328C107.687 13.928 108.151 13.392 108.471 12.72C108.807 12.048 108.975 11.32 108.975 10.536C108.975 9.64 108.703 8.92 108.159 8.376C107.615 7.816 106.911 7.536 106.047 7.536C105.295 7.536 104.623 7.736 104.031 8.136C103.439 8.536 102.975 9.072 102.639 9.744C102.319 10.4 102.159 11.128 102.159 11.928Z" fill="white"/>
<path d="M113.216 19.824H119.024C119.616 19.824 120.136 19.624 120.584 19.224C121.048 18.824 121.336 18.304 121.448 17.664L121.784 15.96C121.384 16.424 120.84 16.792 120.152 17.064C119.464 17.336 118.736 17.472 117.968 17.472C117.088 17.472 116.288 17.256 115.568 16.824C114.864 16.376 114.312 15.768 113.912 15C113.512 14.216 113.312 13.36 113.312 12.432C113.312 12.08 113.352 11.68 113.432 11.232C113.8 9.328 114.592 7.816 115.808 6.696C117.04 5.56 118.528 4.992 120.272 4.992C121.04 4.992 121.72 5.136 122.312 5.424C122.904 5.696 123.336 6.072 123.608 6.552L123.872 5.184H126.8L124.328 17.952C124.072 19.216 123.456 20.232 122.48 21C121.504 21.784 120.336 22.176 118.976 22.176H113.216V19.824ZM116.36 11.232C116.312 11.52 116.288 11.792 116.288 12.048C116.288 12.88 116.528 13.568 117.008 14.112C117.504 14.656 118.136 14.928 118.904 14.928C119.896 14.928 120.752 14.592 121.472 13.92C122.192 13.248 122.664 12.352 122.888 11.232C122.952 10.96 122.984 10.648 122.984 10.296C122.984 9.464 122.736 8.8 122.24 8.304C121.76 7.792 121.088 7.536 120.224 7.536C119.248 7.536 118.416 7.872 117.728 8.544C117.04 9.216 116.584 10.112 116.36 11.232Z" fill="white"/>
<path d="M130.704 0H133.656L132.288 7.056C132.72 6.4 133.296 5.896 134.016 5.544C134.752 5.176 135.52 4.992 136.32 4.992C137.52 4.992 138.448 5.32 139.104 5.976C139.76 6.632 140.088 7.544 140.088 8.712C140.088 9.128 140.04 9.576 139.944 10.056L138.552 17.28H135.624L136.944 10.416C136.992 10.144 137.016 9.896 137.016 9.672C137.016 9.032 136.832 8.528 136.464 8.16C136.096 7.776 135.592 7.584 134.952 7.584C134.136 7.584 133.408 7.88 132.768 8.472C132.144 9.048 131.744 9.784 131.568 10.68L130.272 17.28H127.344L130.704 0Z" fill="white"/>
<path d="M145.032 17.472C144.36 17.472 143.752 17.32 143.208 17.016C142.664 16.712 142.232 16.304 141.912 15.792C141.592 15.28 141.432 14.72 141.432 14.112C141.432 13.888 141.456 13.672 141.504 13.464C141.728 12.328 142.28 11.472 143.16 10.896C144.04 10.32 145.12 10.032 146.4 10.032H149.064C149.72 10.032 150.048 9.664 150.048 8.928C150.048 8.432 149.84 8.024 149.424 7.704C149.024 7.384 148.496 7.224 147.84 7.224C147.104 7.224 146.496 7.424 146.016 7.824C145.552 8.208 145.272 8.672 145.176 9.216H142.224C142.352 8.448 142.696 7.744 143.256 7.104C143.816 6.448 144.52 5.936 145.368 5.568C146.216 5.184 147.128 4.992 148.104 4.992C149.048 4.992 149.888 5.16 150.624 5.496C151.36 5.816 151.928 6.272 152.328 6.864C152.744 7.44 152.952 8.104 152.952 8.856C152.952 9.112 152.928 9.384 152.88 9.672L151.416 17.28H148.464L148.8 15.48C148.448 16.088 147.944 16.576 147.288 16.944C146.632 17.296 145.88 17.472 145.032 17.472ZM144.408 13.488C144.392 13.568 144.384 13.672 144.384 13.8C144.384 14.216 144.536 14.568 144.84 14.856C145.16 15.128 145.576 15.264 146.088 15.264C146.92 15.264 147.64 14.992 148.248 14.448C148.856 13.904 149.248 13.184 149.424 12.288L149.472 11.976H146.688C146.064 11.976 145.552 12.104 145.152 12.36C144.768 12.6 144.52 12.976 144.408 13.488Z" fill="white"/>
<path d="M161.429 7.656C160.533 7.656 159.797 8.008 159.221 8.712C158.661 9.4 158.269 10.352 158.045 11.568L156.941 17.28H153.989L156.341 5.184H159.293L158.861 7.32C159.309 6.552 159.813 6.008 160.373 5.688C160.933 5.352 161.605 5.184 162.389 5.184H163.565V7.656H161.429Z" fill="white"/>
<path d="M165.624 5.184H168.576L166.224 17.28H163.272L165.624 5.184ZM169.704 0L169.056 3.288H165.888L166.536 0H169.704Z" fill="white"/>
</svg>
